<svg width="27" height="27" viewBox="0 0 27 27" fill="none" xmlns="http://www.w3.org/2000/svg">
<circle cx="13.5" cy="13.5" r="13.5" fill="#3F0072"/>
<path fill-rule="evenodd" clip-rule="evenodd" d="M13.3462 6C16.8454 6 19.6923 8.86846 19.6923 12.3946C19.6923 16.7292 14.7262 21 13.3462 21C11.9662 21 7 16.7292 7 12.3946C7 8.86846 9.84692 6 13.3462 6ZM13.3462 7.15385C10.4831 7.15385 8.15385 9.50538 8.15385 12.3946C8.15385 16.0708 12.48 19.6523 13.3462 19.8431C14.2123 19.6515 18.5385 16.07 18.5385 12.3946C18.5385 9.50538 16.2092 7.15385 13.3462 7.15385ZM13.3469 9.84615C14.7254 9.84615 15.8469 10.9677 15.8469 12.3469C15.8469 13.7254 14.7254 14.8462 13.3469 14.8462C11.9685 14.8462 10.8469 13.7254 10.8469 12.3469C10.8469 10.9677 11.9685 9.84615 13.3469 9.84615ZM13.3469 11C12.6046 11 12.0008 11.6038 12.0008 12.3469C12.0008 13.0892 12.6046 13.6923 13.3469 13.6923C14.0892 13.6923 14.6931 13.0892 14.6931 12.3469C14.6931 11.6038 14.0892 11 13.3469 11Z" fill="white"/>
</svg>
