<svg width="55" height="55" viewBox="0 0 55 55" fill="none" xmlns="http://www.w3.org/2000/svg">
<rect width="55" height="55" rx="27.5" fill="white"/>
<circle cx="28" cy="27" r="24" fill="#3F0072"/>
<path fill-rule="evenodd" clip-rule="evenodd" d="M28.2421 19.3461C28.2744 19.3657 28.3066 19.3864 28.3358 19.4101C29.7436 20.506 29.847 22.5433 29.852 26.6118L29.8522 26.9992C29.8522 31.3278 29.7876 33.4591 28.3358 34.5903C28.3066 34.613 28.2744 34.6346 28.241 34.6532C27.8099 34.8968 27.3714 35 26.934 35C25.4853 35 24.0492 33.8699 22.9307 32.9905C22.4255 32.5931 21.6622 31.9925 21.3987 31.9656C21.0998 31.9429 20.8415 31.9336 20.6134 31.9274C19.7823 31.8975 19.1252 31.8758 18.3524 31.2442C17.4226 30.4853 17.3372 28.9815 17.334 27.656L17.3349 27.2221L17.3359 26.9992L17.3349 26.7762L17.334 26.3423C17.3372 25.017 17.4226 23.5141 18.3524 22.7552C19.1262 22.1235 19.7844 22.1008 20.6176 22.0729C20.8446 22.0647 21.1019 22.0564 21.4008 22.0348C21.6622 22.0069 22.4255 21.4062 22.9307 21.0089C24.3876 19.8622 26.3831 18.2965 28.2421 19.3461ZM36.5482 20.2666C39.3737 24.2959 39.3737 29.7072 36.5482 33.7334C36.3962 33.9491 36.1535 34.0647 35.9067 34.0647C35.7525 34.0647 35.5974 34.0193 35.4609 33.9254C35.1068 33.6818 35.0194 33.1998 35.2662 32.8479C37.7584 29.2974 37.7584 24.7056 35.2662 21.149C35.0194 20.7981 35.1068 20.3161 35.462 20.0715C35.8161 19.8269 36.3014 19.9146 36.5482 20.2666ZM26.9236 20.5547C26.0196 20.5547 24.8636 21.464 23.9013 22.2216C22.9754 22.9492 22.2443 23.5251 21.5153 23.5788C21.1925 23.6015 20.9154 23.6118 20.6717 23.6201C19.8938 23.6459 19.6969 23.6634 19.346 23.9503C18.9432 24.2782 18.8984 25.491 18.8963 26.401L18.8971 26.769L18.8981 26.9971V27.0012L18.8971 27.2293L18.8963 27.5977C18.8984 28.5083 18.9432 29.7212 19.346 30.049C19.6959 30.3359 19.8927 30.3525 20.6686 30.3803C20.9134 30.3875 21.1914 30.3979 21.5153 30.4216C22.2443 30.4742 22.9754 31.0502 23.9013 31.7778C25.05 32.6809 26.4726 33.8007 27.4162 33.3352C28.1802 32.679 28.2838 30.974 28.2897 27.3663L28.29 26.9992C28.29 23.1391 28.2056 21.3422 27.4162 20.6631C27.2631 20.5878 27.0975 20.5547 26.9236 20.5547ZM33.9779 22.8106C35.4724 25.3991 35.4724 28.6089 33.9779 31.1892C33.8331 31.4389 33.5707 31.5783 33.2999 31.5783C33.1676 31.5783 33.0343 31.5453 32.9114 31.4751C32.5376 31.2625 32.4084 30.7887 32.623 30.4192C33.8425 28.3127 33.8425 25.6932 32.623 23.5805C32.4084 23.209 32.5386 22.7363 32.9125 22.5237C33.2874 22.3152 33.7634 22.4401 33.9779 22.8106Z" fill="white"/>
</svg>
